<svg width="30" height="30" xmlns="http://www.w3.org/2000/svg">
 <defs>
  <linearGradient id="SVGID_1_" x1="0.50001" y1="0" x2="0.50001" y2="0.99998">
   <stop offset="0" stop-color="#F3F4F5"/>
   <stop offset="0.3145" stop-color="#E6E7E8"/>
   <stop offset="0.9005" stop-color="#C5C4C4"/>
   <stop offset="0.9939" stop-color="#BFBEBE"/>
  </linearGradient>
 </defs>
 <g>
  <title>background</title>
  <rect x="-1" y="-1" width="32" height="32" id="canvas_background" fill="none"/>
 </g>
 <g>
  <title>Layer 1</title>
  <g id="svg_127">
   <path fill-opacity="0.5" d="m20.559,14.858c-0.022,-2.604 2.125,-3.856 2.227,-3.916c-1.21,-1.771 -3.096,-2.014 -3.77,-2.042c-1.602,-0.162 -3.125,0.944 -3.938,0.944c-0.813,0 -2.067,-0.921 -3.397,-0.896c-1.748,0.024 -3.357,1.016 -4.257,2.579c-1.815,3.148 -0.464,7.813 1.304,10.369c0.864,1.25 1.895,2.655 3.249,2.604c1.305,-0.051 1.797,-0.843 3.374,-0.843c1.574,0 2.018,0.843 3.396,0.817c1.401,-0.025 2.292,-1.275 3.149,-2.529c0.992,-1.45 1.396,-2.854 1.424,-2.927c-0.031,-0.009 -2.734,-1.045 -2.761,-4.16z" id="svg_128"/>
   <path fill-opacity="0.5" d="m17.967,7.21c0.719,-0.871 1.204,-2.082 1.07,-3.287c-1.035,0.042 -2.288,0.69 -3.032,1.561c-0.666,0.77 -1.249,2.003 -1.091,3.184c1.154,0.088 2.335,-0.588 3.053,-1.458z" id="svg_129"/>
  </g>
  <g id="svg_130">
   <path fill="url(#SVGID_1_)" d="m20.559,15.858c-0.022,-2.604 2.125,-3.856 2.227,-3.916c-1.21,-1.771 -3.096,-2.014 -3.77,-2.042c-1.602,-0.162 -3.125,0.944 -3.938,0.944c-0.813,0 -2.067,-0.921 -3.397,-0.896c-1.748,0.024 -3.357,1.016 -4.257,2.579c-1.815,3.148 -0.464,7.813 1.304,10.369c0.864,1.25 1.895,2.655 3.249,2.604c1.305,-0.051 1.797,-0.843 3.374,-0.843c1.574,0 2.018,0.843 3.396,0.817c1.401,-0.025 2.292,-1.275 3.149,-2.529c0.992,-1.45 1.396,-2.854 1.424,-2.927c-0.031,-0.009 -2.734,-1.045 -2.761,-4.16z" id="svg_131"/>
   <path fill="#F6F7F7" d="m17.967,8.21c0.719,-0.871 1.204,-2.082 1.07,-3.287c-1.035,0.042 -2.288,0.69 -3.032,1.561c-0.666,0.77 -1.249,2.003 -1.091,3.184c1.154,0.088 2.335,-0.588 3.053,-1.458z" id="svg_132"/>
   <path fill="#BFBEBE" d="m11.975,25.503c1.305,-0.051 1.797,-0.843 3.374,-0.843c1.574,0 2.018,0.843 3.396,0.817c1.401,-0.025 2.292,-1.275 3.149,-2.529c0.435,-0.634 0.758,-1.26 0.981,-1.771c-0.758,-0.012 -1.603,-0.021 -2.276,-0.021c-1.654,0 -2.31,-0.326 -5.421,-0.326c-3.115,0 -3.692,0.418 -5.229,0.533c-0.705,0.054 -1.466,0.058 -2.084,0.046c0.266,0.546 0.557,1.048 0.862,1.487c0.864,1.252 1.895,2.659 3.248,2.607z" id="svg_133"/>
  </g>
  <rect fill="#000" stroke="#fff" stroke-width="1.5" x="-304.5" y="324.5" width="2" height="0" id="svg_135"/>
 </g>
</svg>